<svg width="375" height="142" viewBox="0 0 375 142" fill="none" xmlns="http://www.w3.org/2000/svg">
<rect x="0.5" y="0.5" width="140.016" height="140.016" rx="39.5" fill="#5E72E4" stroke="#E1E1E1"/>
<path d="M48.2687 27.0073H24.4949L56.7594 117.008H70.3444V94.9325L48.2687 27.0073Z" fill="url(#paint0_linear_459_54)"/>
<path d="M92.4202 27.0073H116.194L83.9296 117.008H70.3445V94.9325L92.4202 27.0073Z" fill="url(#paint1_linear_459_54)"/>
<path d="M83.9296 117.008H56.7595L70.3446 94.9326L83.9296 117.008Z" fill="url(#paint2_linear_459_54)"/>
<path d="M225.966 43.6558L207.042 97.0078H190.778L171.854 43.6558H185.686L198.91 83.9358L212.21 43.6558H225.966ZM274.718 54.5998L248.118 117.148H234.134L243.862 95.5638L226.61 54.5998H241.126L250.93 81.1238L260.658 54.5998H274.718ZM298.493 84.8478L307.689 54.5998H321.521L306.473 97.0078H290.437L275.389 54.5998H289.297L298.493 84.8478ZM324.407 75.7278C324.407 71.3705 325.218 67.5451 326.839 64.2518C328.511 60.9585 330.766 58.4251 333.603 56.6518C336.441 54.8785 339.607 53.9918 343.103 53.9918C346.093 53.9918 348.702 54.5998 350.931 55.8158C353.211 57.0318 354.959 58.6278 356.175 60.6038V54.5998H369.171V97.0078H356.175V91.0038C354.909 92.9798 353.135 94.5758 350.855 95.7918C348.626 97.0078 346.017 97.6158 343.027 97.6158C339.582 97.6158 336.441 96.7291 333.603 94.9558C330.766 93.1318 328.511 90.5731 326.839 87.2798C325.218 83.9358 324.407 80.0851 324.407 75.7278ZM356.175 75.8038C356.175 72.5611 355.263 70.0025 353.439 68.1278C351.666 66.2531 349.487 65.3158 346.903 65.3158C344.319 65.3158 342.115 66.2531 340.291 68.1278C338.518 69.9518 337.631 72.4851 337.631 75.7278C337.631 78.9705 338.518 81.5545 340.291 83.4798C342.115 85.3545 344.319 86.2918 346.903 86.2918C349.487 86.2918 351.666 85.3545 353.439 83.4798C355.263 81.6051 356.175 79.0465 356.175 75.8038Z" fill="#32325D"/>
<defs>
<linearGradient id="paint0_linear_459_54" x1="47.4197" y1="27.0073" x2="47.4197" y2="117.008" gradientUnits="userSpaceOnUse">
<stop stop-color="#9CABFF"/>
<stop offset="1" stop-color="#EDF0FF"/>
</linearGradient>
<linearGradient id="paint1_linear_459_54" x1="93.2693" y1="27.0073" x2="93.2693" y2="117.008" gradientUnits="userSpaceOnUse">
<stop stop-color="#AFBBFF"/>
<stop offset="1" stop-color="#5C72ED"/>
</linearGradient>
<linearGradient id="paint2_linear_459_54" x1="81.3824" y1="106.819" x2="55.0614" y2="117.008" gradientUnits="userSpaceOnUse">
<stop stop-color="#BFC7F4"/>
<stop offset="1" stop-color="#5E72E4"/>
</linearGradient>
</defs>
</svg>
